# xmcd CD database file
#
# Track frame offsets:
#	150
#	12020
#	22589
#	33291
#	46155
#	56837
#	69465
#	81453
#	93890
#	106388
#	118707
#	130186
#	141235
#	152880
#	164223
#	176816
#	190273
#	202453
#	215760
#	227814
#	239993
#	252583
#	265758
#	276395
#	287821
#	300160
#	310214
#
# Disc length: 4309 seconds
#
# Revision: 1
# Processed by: cddbd v1.5.2PL0 Copyright (c) Steve Scherf et al.
# Submitted via: CDex 1.40Beta9
#
DISCID=9a10d31b
DTITLE=Various Artist - The Complete Motown Singles Volume 2 [CD10)
DYEAR=2005
DGENRE=R&B/Soul
TTITLE0=The Marvelettes - Strange I Know
TTITLE1=The Marvelettes - Too Strong To Be Strung Along [first pressing]
TTITLE2=The Marvelettes - Too Strong To Be Strung Along [second pressing]
TTITLE3=The Vells - There He Is (At My Door)
TTITLE4=The Vells - You'll Never Cherish A Love So True ('Til You Lose It)
TTITLE5=The Temptations - Paradise
TTITLE6=The Temptations - Slow Down Heart
TTITLE7=Hattie Littles - Your Love Is Wonderful [second pressing]
TTITLE8=Mary Wells - Two Lovers
TTITLE9=Mary Wells - Operator
TTITLE10=The Supremes - Let Me Go The Right Way
TTITLE11=The Supremes - Time Changes Things
TTITLE12=Bob Kayli - Hold On Pearl
TTITLE13=Bob Kayli - Toodle Loo
TTITLE14=The Miracles - Happy Landing
TTITLE15=The Miracles - You've Really Got A Hold On Me
TTITLE16=The Contours - Shake Sherrie [commercial version]
TTITLE17=The Contours - You Better Get In Line
TTITLE18=The Contours - Shake Sherrie [radio promo version]
TTITLE19=LaBrenda Ben and The Beljeans - Camel Walk
TTITLE20=LaBrenda Ben and The Beljeans - The Chaperone
TTITLE21=Eddie Holland - Darling, I Hum Our Song
TTITLE22=Eddie Holland - Just A Few More Days
TTITLE23=Marvin Gaye - Hitch Hike
TTITLE24=Marvin Gaye - Hello There Angel
TTITLE25=Little Stevie Wonder - Contract On Love
TTITLE26=Little Stevie Wonder - Sunset
EXTD=YEAR: 2005
EXTT0=
EXTT1=
EXTT2=
EXTT3=
EXTT4=
EXTT5=
EXTT6=
EXTT7=
EXTT8=
EXTT9=
EXTT10=
EXTT11=
EXTT12=
EXTT13=
EXTT14=
EXTT15=
EXTT16=
EXTT17=
EXTT18=
EXTT19=
EXTT20=
EXTT21=
EXTT22=
EXTT23=
EXTT24=
EXTT25=
EXTT26=
PLAYORDER=
